<?xml version="1.0" encoding="UTF-8"?>
<svg id="Camada_2" data-name="Camada 2" xmlns="http://www.w3.org/2000/svg" viewBox="0 0 1689.3 204.95">
  <defs>
    <style>
      .cls-1 {
        fill: #800020;
      }
    </style>
  </defs>
  <g id="Camada_1-2" data-name="Camada 1">
    <g>
      <polygon points="88.69 0 33.55 0 0 202.37 138.13 202.37 145.6 157.28 62.61 157.28 88.69 0"/>
      <polygon points="311.7 122.24 318.9 78.51 233.47 78.51 239.04 45.1 332.08 45.1 339.55 0 191.37 0 157.82 202.37 305.59 202.37 313.06 157.28 220.43 157.28 226.27 122.24 311.7 122.24"/>
      <path d="M489.15,87.27c6.66-3.85,12.2-8.6,16.64-14.26,4.44-5.66,7.24-11.98,8.42-18.95,1.72-10.78.48-20.21-3.73-28.32-4.21-8.1-11.3-14.42-21.26-18.95-9.96-4.52-22.64-6.79-38.03-6.79h-86.38l-33.55,202.37h96.84c14.67,0,27.53-2.28,38.58-6.86,11.04-4.57,19.96-10.91,26.75-19.01,6.79-8.1,11.05-17.41,12.77-27.91,1.72-10.14,1.04-19.02-2.04-26.62-3.08-7.61-7.86-13.63-14.33-18.07-6.47-4.43-14.01-6.83-22.61-7.19v-1.36c7.96-1.54,15.28-4.23,21.93-8.08ZM450.38,135.69c-1.09,7.24-4.44,12.92-10.05,17.04-5.62,4.12-12.77,6.18-21.46,6.18h-25.54l6.93-42.24h28.52c5.25,0,9.62.73,13.11,2.17,3.48,1.45,5.95,3.58,7.4,6.39,1.45,2.81,1.81,6.29,1.09,10.46ZM456.76,59.49c-.73,4.53-2.44,8.45-5.16,11.75-2.72,3.31-6.09,5.82-10.12,7.54-4.03,1.72-8.35,2.58-12.97,2.58h-22.41l6.38-38.3h25.27c6.6,0,11.65,1.38,15.14,4.14,3.48,2.76,4.77,6.86,3.87,12.29Z"/>
      <path d="M685.21,105.74c8.15-10.01,13.4-22.21,15.75-36.6,2.36-14.31,1.22-26.65-3.39-37.02-4.62-10.36-12.16-18.31-22.62-23.83s-23.29-8.29-38.5-8.29h-86.93l-33.54,202.37h55.14l10.95-66h20.67l23.52,66h59.22l-27.87-75.41c11.02-5.12,20.23-12.18,27.6-21.22ZM644.05,69.14c-.81,5.61-2.73,10.2-5.77,13.78-3.03,3.58-6.95,6.23-11.75,7.95-4.8,1.72-10.37,2.58-16.7,2.58h-20.63l8.13-49.03h20.65c9.41,0,16.48,2.03,21.18,6.11,4.71,4.07,6.34,10.27,4.89,18.61Z"/>
      <polygon points="855.52 122.24 862.72 78.51 777.29 78.51 782.86 45.1 875.89 45.1 883.36 0 735.18 0 701.64 202.37 849.41 202.37 856.88 157.28 764.25 157.28 770.09 122.24 855.52 122.24"/>
      <path class="cls-1" d="M1032.97,87.27c6.65-3.85,12.2-8.6,16.64-14.26,4.43-5.66,7.24-11.98,8.42-18.95,1.72-10.78.47-20.21-3.74-28.32-4.21-8.1-11.29-14.42-21.25-18.95-9.96-4.52-22.64-6.79-38.03-6.79h-86.38l-33.55,202.37h96.84c14.67,0,27.52-2.28,38.57-6.86,11.05-4.57,19.97-10.91,26.76-19.01,6.79-8.1,11.04-17.41,12.77-27.91,1.71-10.14,1.03-19.02-2.04-26.62-3.08-7.61-7.86-13.63-14.33-18.07-6.48-4.43-14.01-6.83-22.61-7.19v-1.36c7.96-1.54,15.27-4.23,21.93-8.08ZM994.19,135.69c-1.08,7.24-4.43,12.92-10.05,17.04-5.61,4.12-12.76,6.18-21.46,6.18h-25.53l6.93-42.24h28.52c5.25,0,9.62.73,13.1,2.17,3.49,1.45,5.96,3.58,7.41,6.39,1.44,2.81,1.81,6.29,1.08,10.46ZM1000.58,59.49c-.73,4.53-2.45,8.45-5.16,11.75-2.72,3.31-6.1,5.82-10.12,7.54-4.03,1.72-8.36,2.58-12.97,2.58h-22.41l6.38-38.3h25.26c6.61,0,11.66,1.38,15.15,4.14,3.48,2.76,4.77,6.86,3.87,12.29Z"/>
      <polygon class="cls-1" points="1059.79 202.37 1114.93 202.37 1148.48 0 1093.34 0 1059.79 202.37"/>
      <polygon class="cls-1" points="1343.11 0 1168.31 0 1160.84 45.1 1220.6 45.1 1194.52 202.37 1249.8 202.37 1275.88 45.1 1335.64 45.1 1343.11 0"/>
      <polygon class="cls-1" points="1503.51 45.1 1510.98 0 1362.8 0 1329.25 202.37 1477.02 202.37 1484.49 157.28 1391.87 157.28 1397.71 122.24 1483.14 122.24 1490.33 78.51 1404.9 78.51 1410.47 45.1 1503.51 45.1"/>
      <path class="cls-1" d="M1635.94,63.43c.63-6.7-1.02-11.93-4.96-15.69-3.94-3.75-10.35-5.63-19.22-5.63-5.52,0-10.28.68-14.26,2.03-3.99,1.36-7.09,3.24-9.31,5.64-2.22,2.4-3.59,5.14-4.14,8.22-.54,3.26-.07,6.06,1.43,8.42,1.49,2.35,4.12,4.41,7.88,6.18,3.75,1.76,8.8,3.33,15.14,4.68l15.89,3.4c10.87,2.36,20.05,5.43,27.57,9.24,7.52,3.8,13.42,8.3,17.73,13.51,4.3,5.21,7.15,11.07,8.55,17.59,1.41,6.52,1.43,13.72.07,21.59-2.17,13.31-7.08,24.63-14.74,33.96-7.65,9.32-17.81,16.39-30.49,21.19-12.68,4.79-27.62,7.19-44.82,7.19s-33.25-2.65-45.97-7.94c-12.72-5.3-21.98-13.33-27.78-24.11-5.79-10.77-7.33-24.4-4.61-40.88h52.42c-.72,5.98-.05,11.07,2.04,15.28,2.08,4.21,5.45,7.38,10.12,9.51,4.66,2.12,10.52,3.19,17.59,3.19,5.88,0,10.97-.73,15.28-2.18,4.29-1.44,7.76-3.46,10.39-6.04,2.62-2.58,4.21-5.59,4.75-9.03.54-3.08,0-5.79-1.63-8.15-1.63-2.35-4.53-4.48-8.69-6.38-4.17-1.91-9.87-3.62-17.12-5.16l-19.69-4.22c-17.57-3.8-30.76-10.45-39.59-19.96-8.83-9.51-11.93-22.18-9.3-38.03,2.08-12.77,7.15-23.9,15.21-33.41,8.06-9.51,18.42-16.93,31.1-22.28,1.32-.56,2.67-1.09,4.03-1.58,5.03,6.75,13.07,11.12,22.14,11.12.54,0,1.08-.02,1.61-.05,3.81,10.68,14.02,18.32,26.01,18.32,5.6,0,10.8-1.66,15.15-4.53,5.02,5.27,12.11,8.55,19.97,8.55,8.44,0,15.99-3.78,21.05-9.75.24.38.45.76.66,1.15,5.39,9.96,7.09,21.64,5.1,35.04h-52.56Z"/>
    </g>
  </g>
</svg>