<?xml version="1.0" encoding="UTF-8"?>
<svg id="Camada_1" data-name="Camada 1" xmlns="http://www.w3.org/2000/svg" viewBox="0 0 640 640">
  <defs>
    <style>
      .cls-1 {
        fill: #670620;
      }

      .cls-2 {
        fill: #7b2134;
      }

      .cls-3 {
        fill: #67041f;
      }

      .cls-4 {
        fill: #fdfdfd;
      }
    </style>
  </defs>
  <path class="cls-1" d="M505.77,294.11c-.05-4.88-15.03-22.48-19.41-27.59-8.6-10-20.67-16.45-33.94-17.66-13.34-1.22-23.64-7.11-32.64-16.92-10.08-10.98-19.83-21.66-31.98-30.79-28.04-21.09-64.01-29.59-98.85-23.59,17.72,40.58,48.92,64.02,91.69,70.58,5.99.97,11.82,1.57,17.26,3.65,11.28,4.31,15.87,15.87,10.8,26.78-4.74,10.19-14.2,16.76-24.92,18.88.06.86.96,1.2,1.97,1.58,15.81,5.87,30.04,15.76,38.29,29.71,3.51,5.93,8.36,11.33,10.01,19.67,6.28-10.08,8.69-20.12,10.44-31.23-2.81-.73-3.85-2.63-5.39-3.44-8.82-4.6-14.85-14.62-15.25-25.14,4.76,9.31,10.68,16.35,18.88,21.52,5.18,2.08,15.92,5.1,21.9,4.28,3.81-.53,6.43.62,9.11.5,11.07-.54,22.67,1.37,27.4-10.78-.75-3.89-3.66-6.47-6.48-10.61,3.98-.25,7.48,1.18,11.11.6ZM391.36,235.52c-5.9-2.98-11.33-4.52-18.01-2.19-4.52,1.58-10.72,1.26-15.05-1.59-13.24-8.7-27.12-15.55-40.13-26.93,7.81-.45,39.18,22.13,42.5,17.53.58-.8.59-2.75-.76-3.55l-35.65-21.04c-.8-.47-.96-1.52-.68-1.97.27-.44,1.35-.61,2.18-.22l37.27,17.34c1.24.58,2.46-.08,2.9-.61,4.91-5.82-34.36-18.83-38.3-25.88,16.83,4.25,30.99,11.95,46.04,18.07,5.62,2.28,8.97,7.58,10.5,13,1.61,5.72,6.09,8.68,11,11.43,11.99,6.7,23.85,14.9,29.37,29.07-10.63-9.03-21.11-16.35-33.18-22.46ZM459.09,279.67c-8.72-5.71,1.61-7.93-15.25-12.33,7.97-2.26,20.2-4.28,26.84,2.94,4.01,4.36,6.81,9.3,9.34,14.58-15.17-9.95-13.34-.21-20.93-5.19Z"/>
  <path class="cls-3" d="M280.22,345.99c-6.05,25.46-24.08,47.35-48.15,58.82-14.25,6.8-29.34,8.7-45.05,8.11-33.19-1.24-31.75,33.1-57.21,51.74-6.63,4.86-14.23,7.78-22.27,7.04-1.3-12.08,3.85-23.35,13.42-30.66,19.43-14.83,26.98-31.45,36.74-52.79,9.51,2.18,19.05,2.04,26.96-3.49,14.84-10.39,13.46-28.5,18.53-46.82,14.34-10.29,23.18-17.58,43.03-19.36.35,34.41-15.53,63.09-43.95,77.33,19.46-4.58,31.48-19.17,41.81-34.08,11.62-6.31,23.33-12.32,36.14-15.84Z"/>
  <path class="cls-1" d="M385.17,390.04c-14.73-.44-29.08-4.45-43.04-10.4-22.03-9.66-37.9-16.04-62.19-14.03,5.83-12.45,8.65-24.14,10.02-36.36,15.63,6.81,43.2,34.02,61.9,39.87,8.64,5.67,19.29,7.04,29.8,8.83,1.65,4.31,2.95,8.22,3.51,12.09Z"/>
  <path class="cls-2" d="M429.09,376.88c-1.99-1.34-2.59-3.9-3.85-6.29-10.2-19.38-32.36-32.79-51.55-42.12-2.88-1.39-5.28-2.81-7.45-4.61l-7.05-24.94c-.19-.67-.08-1.13.54-1.09.94.25,2.26-.27,3.16.16,5.7,2.76,11.74,3.41,18.3,5.92,14.88,5.67,29.85,14.43,38.82,27.99,8.67,13.1,12.13,30.13,9.08,44.98Z"/>
  <path class="cls-1" d="M532.66,399.51c-9.88,6.76-22.45,4.8-31.14-3.45-7.95-7.55-17.01-10.55-27.57-10.6-17.5-.08-15.93.21-32.7-7.02,5.76-5.79,9.75-10.57,13.6-16.71l35.32,8.39c14.04,3.33,36.76,15.34,42.49,29.39Z"/>
  <path class="cls-1" d="M218.72,299.78c-8.65,9.57-16.14,19.79-20.36,32.47-12.4-2.86-21.12-11.79-23.84-23.59-2.57-12.55,2-25.17,12.24-32.9,4.51,14.52,16.21,23.58,31.96,24.02Z"/>
  <path class="cls-1" d="M199.45,419.21c-10.21,20.07-22.26,52.11-49.85,52.7-.98-11.01,4.07-21.55,12.36-28.97,7.46-6.68,12.32-14.88,17.25-23.52,6.86-.86,13-.07,20.24-.21Z"/>
  <path class="cls-1" d="M301.13,372.6c-15.02,25.9-40.88,42.75-73.26,40.86,19.06-7.81,36.32-21.13,47.9-40.46,8.63-1.95,17.04-2.38,25.36-.4Z"/>
  <path class="cls-2" d="M284,326.14c-.11,6.89-2.25,13.38-3.78,19.85-12.81,3.52-24.52,9.53-36.14,15.84,5.48-13.89,9.41-27.94,8.87-43.65,11.43.36,21.9,2.78,31.05,7.96Z"/>
  <path class="cls-1" d="M464.08,320.97c-2.79,3.7-3.61,8.86-4.79,13.63-3.79,15.35-10.81,30.12-23.03,39.42.2-5.45.13-10.88-.28-16.9,8.43-11.39,12.16-24.29,14.61-37.85l13.49,1.7Z"/>
  <path class="cls-1" d="M448.03,241.85c-13.87-1.64-21.96-12.05-30.13-21.69-8.69-10.25,1.56-18.55-11.7-29.97l-33.38-28.77c-.65-.56-1.51-.37-1.77.13-.2.39-.35,1.13.28,1.8l27.86,29.33c1.04,1.1,1.07,2.86.18,4.01-.67.85-2.47,1.01-3.86-.28l-30.14-27.91c-.54-.5-1.47-.58-1.73-.34-.27.23-.66,1.27-.3,1.68l16.29,18.81c-9.62-6.85-21.75-9.78-33.07-14.71-6.37-9.47-8.96-22.84-9.91-34.55,31.81,5.43,64.93,23.76,82.96,49.84,13.09,18.93,16.7,33.47,28.42,52.62Z"/>
  <path class="cls-4" d="M318.17,204.81c7.81-.45,39.17,22.13,42.49,17.53.58-.8.6-2.76-.75-3.55l-35.66-21.04c-.8-.47-.96-1.51-.67-1.97s1.35-.61,2.18-.22l37.27,17.34c1.24.58,2.46-.08,2.9-.61,4.91-5.83-34.36-18.83-38.3-25.88,16.83,4.25,31,11.96,46.04,18.07,5.62,2.28,8.97,7.59,10.5,13,1.62,5.72,6.09,8.68,11,11.43,11.99,6.71,23.85,14.91,29.36,29.07-10.63-9.03-21.1-16.34-33.17-22.45-5.9-2.99-11.33-4.53-18.01-2.19-4.53,1.58-10.72,1.26-15.06-1.59-13.23-8.69-27.12-15.55-40.12-26.93Z"/>
  <path class="cls-3" d="M514.35,435.65c-11.69,5.91-25.1,1.69-32.84-8.01-6.29-7.87-13.58-13.04-23.4-15.92-19.51-5.7-39.06-9.38-59.26-11.47l-4.88-9.57c-7.02-13.76-12.36-28.28-19.9-42.26l5.16,22.97c-8.96-1.82-17.71-3.54-25.23-7.28-28.29-14.08-37.49-28.51-65.75-42.3-8.84-4.32-16.73-8.38-27.69-9.36-17.13-1.53-34.52,1.78-49.12,12.02-1.13.79-2.47,1.11-3.51,1.37,12.59-26.93,40.67-43.98,70.83-46.1,14.84-1.04,29,1.1,43.1,5.67l30.01,9.74c.4,5.77,2.86,10.55,4.1,17.16-16.33-8.46-32.85-14.28-50-17.6-17.25-3.33-35.7-3.85-52.17,4.47,18.26-3.17,35.23-2.4,52.18,1.92,18.83,4.8,36.83,12.33,54.62,21,2.01.98,3.95,1.58,5.64,1.76,2.17,1.8,4.57,3.22,7.45,4.61,19.19,9.33,41.35,22.74,51.55,42.12,1.26,2.39,1.86,4.95,3.85,6.29l.54,2.39c.18.79.82,1.67,1.97,2.12l31.74,12.4c18.75,7.33,43.95,21.89,51.01,41.86Z"/>
</svg>