<?xml version="1.0" encoding="UTF-8"?>
<svg id="Camada_1" data-name="Camada 1" xmlns="http://www.w3.org/2000/svg" viewBox="0 0 1920.25 1080.25">
  <defs>
    <style>
      .cls-1 {
        fill: none;
        stroke: #000;
        stroke-miterlimit: 10;
        stroke-width: .25px;
      }

      .cls-2 {
        fill: #670620;
      }

      .cls-3 {
        fill: #7b2134;
      }

      .cls-4 {
        fill: #67041f;
      }
    </style>
  </defs>
  <g>
    <path class="cls-2" d="M1437.31,510.48c-.13-12.54-38.61-57.74-49.86-70.87-22.09-25.69-53.09-42.25-87.18-45.36-34.27-3.13-60.72-18.26-83.84-43.46-25.89-28.2-50.94-55.64-82.15-79.09-72.03-54.17-164.42-76.01-253.91-60.6,45.52,104.24,125.66,164.45,235.52,181.3,15.39,2.49,30.36,4.03,44.34,9.38,28.97,11.07,40.76,40.76,27.74,68.79-12.18,26.17-36.48,43.05-64.01,48.5.15,2.21,2.47,3.08,5.06,4.06,40.61,15.08,77.16,40.48,98.35,76.32,9.02,15.23,21.47,29.1,25.71,50.53,16.13-25.89,22.32-51.68,26.82-80.22-7.22-1.88-9.89-6.76-13.85-8.84-22.66-11.82-38.14-37.55-39.17-64.58,12.23,23.91,27.43,42,48.5,55.28,13.31,5.34,40.89,13.1,56.25,10.99,9.79-1.36,16.52,1.59,23.4,1.28,28.44-1.39,58.23,3.52,70.38-27.69-1.93-9.99-9.4-16.62-16.65-27.25,10.22-.64,19.21,3.03,28.54,1.54ZM1143.42,359.98c-15.16-7.65-29.1-11.61-46.26-5.63-11.61,4.06-27.54,3.24-38.66-4.08-34.01-22.35-69.66-39.94-103.08-69.17,20.06-1.16,100.64,56.84,109.17,45.03,1.49-2.06,1.52-7.06-1.95-9.12l-91.57-54.04c-2.05-1.21-2.47-3.9-1.75-5.06.69-1.13,3.47-1.57,5.6-.57l95.73,44.54c3.19,1.49,6.32-.21,7.45-1.57,12.61-14.95-88.26-48.37-98.38-66.48,43.23,10.92,79.6,30.7,118.26,46.42,14.44,5.86,23.04,19.47,26.97,33.39,4.14,14.69,15.64,22.3,28.26,29.36,30.8,17.21,61.26,38.27,75.44,74.67-27.31-23.2-54.22-42-85.23-57.69ZM1317.4,473.39c-22.4-14.67,4.14-20.37-39.17-31.67,20.47-5.81,51.89-10.99,68.94,7.55,10.3,11.2,17.49,23.89,23.99,37.45-38.97-25.56-34.27-.54-53.76-13.33Z"/>
    <path class="cls-4" d="M857.94,643.75c-15.54,65.4-61.85,121.63-123.68,151.09-36.6,17.47-75.37,22.35-115.72,20.83-85.25-3.19-81.56,85.02-146.95,132.9-17.03,12.48-36.55,19.98-57.2,18.08-3.34-31.03,9.89-59.98,34.47-78.76,49.91-38.09,69.3-80.78,94.37-135.6,24.43,5.6,48.93,5.24,69.25-8.96,38.12-26.69,34.57-73.21,47.6-120.27,36.83-26.43,59.54-45.16,110.53-49.73.9,88.39-39.89,162.06-112.89,198.64,49.99-11.76,80.86-49.24,107.4-87.54,29.85-16.21,59.93-31.65,92.83-40.69Z"/>
    <path class="cls-2" d="M1127.52,756.9c-37.84-1.13-74.7-11.43-110.56-26.71-56.59-24.81-97.35-41.2-159.75-36.04,14.98-31.98,22.22-62.01,25.74-93.4,40.15,17.49,110.97,87.39,159,102.41,22.19,14.56,49.55,18.08,76.55,22.68,4.24,11.07,7.58,21.11,9.02,31.06Z"/>
    <path class="cls-3" d="M1240.34,723.09c-5.11-3.44-6.65-10.02-9.89-16.16-26.2-49.78-83.12-84.23-132.42-108.19-7.4-3.57-13.56-7.22-19.14-11.84l-18.11-64.06c-.49-1.72-.21-2.9,1.39-2.8,2.41.64,5.81-.69,8.12.41,14.64,7.09,30.16,8.76,47.01,15.21,38.22,14.56,76.67,37.07,99.72,71.9,22.27,33.65,31.16,77.39,23.32,115.54Z"/>
    <path class="cls-2" d="M1506.38,781.22c-25.38,17.36-57.67,12.33-79.99-8.86-20.42-19.39-43.69-27.1-70.82-27.23-44.95-.21-40.92.54-84-18.03,14.8-14.87,25.04-27.15,34.93-42.92l90.73,21.55c36.06,8.55,94.42,39.4,109.14,75.49Z"/>
    <path class="cls-2" d="M699.97,525.05c-22.22,24.58-41.46,50.83-52.3,83.4-31.85-7.35-54.25-30.28-61.24-60.6-6.6-32.24,5.14-64.65,31.44-84.51,11.58,37.3,41.64,60.57,82.09,61.7Z"/>
    <path class="cls-2" d="M650.47,831.82c-26.23,51.55-57.18,133.85-128.05,135.37-2.52-28.28,10.45-55.35,31.75-74.41,19.16-17.16,31.65-38.22,44.31-60.42,17.62-2.21,33.39-.18,51.99-.54Z"/>
    <path class="cls-2" d="M911.65,712.1c-38.58,66.53-105.01,109.81-188.18,104.96,48.96-20.06,93.29-54.28,123.04-103.93,22.17-5.01,43.77-6.11,65.14-1.03Z"/>
    <path class="cls-3" d="M867.65,592.76c-.28,17.7-5.78,34.37-9.71,50.99-32.9,9.04-62.98,24.48-92.83,40.69,14.08-35.68,24.17-71.77,22.78-112.12,29.36.92,56.25,7.14,79.76,20.45Z"/>
    <path class="cls-2" d="M1330.22,579.48c-7.17,9.5-9.27,22.76-12.3,35.01-9.74,39.43-27.77,77.37-59.16,101.26.51-14,.33-27.95-.72-43.41,21.65-29.26,31.24-62.39,37.53-97.22l34.65,4.37Z"/>
    <path class="cls-2" d="M1288.99,376.24c-35.63-4.21-56.41-30.95-77.39-55.71-22.32-26.33,4.01-47.65-30.05-76.98l-85.74-73.9c-1.67-1.44-3.88-.95-4.55.33-.51,1-.9,2.9.72,4.62l71.56,75.34c2.67,2.83,2.75,7.35.46,10.3-1.72,2.18-6.34,2.59-9.92-.72l-77.42-71.69c-1.39-1.28-3.78-1.49-4.44-.87-.69.59-1.7,3.26-.77,4.32l41.84,48.32c-24.71-17.6-55.87-25.12-84.95-37.79-16.36-24.33-23.02-58.67-25.46-88.75,81.71,13.95,166.78,61.03,213.1,128.02,33.62,48.63,42.9,85.97,73,135.16Z"/>
    <path class="cls-4" d="M1459.35,874.05c-30.03,15.18-64.47,4.34-84.36-20.58-16.16-20.22-34.88-33.5-60.11-40.89-50.11-14.64-100.33-24.09-152.22-29.46l-12.54-24.58c-18.03-35.35-31.75-72.64-51.12-108.55l13.25,59c-23.02-4.68-45.49-9.09-64.81-18.7-72.67-36.17-96.3-73.23-168.89-108.65-22.71-11.1-42.97-21.53-71.13-24.04-44-3.93-88.67,4.57-126.17,30.88-2.9,2.03-6.34,2.85-9.02,3.52,32.34-69.17,104.47-112.97,181.94-118.42,38.12-2.67,74.49,2.83,110.71,14.56l77.09,25.02c1.03,14.82,7.35,27.1,10.53,44.08-41.95-21.73-84.38-36.68-128.43-45.21-44.31-8.55-91.7-9.89-134.01,11.48,46.9-8.14,90.49-6.16,134.03,4.93,48.37,12.33,94.6,31.67,140.3,53.94,5.16,2.52,10.15,4.06,14.49,4.52,5.57,4.62,11.74,8.27,19.14,11.84,49.29,23.97,106.21,58.41,132.42,108.19,3.24,6.14,4.78,12.71,9.89,16.16l1.39,6.14c.46,2.03,2.11,4.29,5.06,5.45l81.53,31.85c48.16,18.83,112.89,56.23,131.03,107.52Z"/>
  </g>
  <rect class="cls-1" x=".12" y=".12" width="1920" height="1080"/>
</svg>